<?xml version="1.0" encoding="UTF-8" standalone="no"?>
<svg
   xmlns:dc="http://purl.org/dc/elements/1.1/"
   xmlns:cc="http://creativecommons.org/ns#"
   xmlns:rdf="http://www.w3.org/1999/02/22-rdf-syntax-ns#"
   xmlns:svg="http://www.w3.org/2000/svg"
   xmlns="http://www.w3.org/2000/svg"
   xmlns:sodipodi="http://sodipodi.sourceforge.net/DTD/sodipodi-0.dtd"
   xmlns:inkscape="http://www.inkscape.org/namespaces/inkscape"
   height="512px"
   version="1.1"
   viewBox="0 0 512 512"
   width="512px"
   xml:space="preserve"
   id="svg3759"
   sodipodi:docname="js-file.svg"
   inkscape:version="0.92.2 5c3e80d, 2017-08-06"><metadata
     id="metadata3765"><rdf:RDF><cc:Work
         rdf:about=""><dc:format>image/svg+xml</dc:format><dc:type
           rdf:resource="http://purl.org/dc/dcmitype/StillImage" /></cc:Work></rdf:RDF></metadata><defs
     id="defs3763" /><sodipodi:namedview
     pagecolor="#ffffff"
     bordercolor="#666666"
     borderopacity="1"
     objecttolerance="10"
     gridtolerance="10"
     guidetolerance="10"
     inkscape:pageopacity="0"
     inkscape:pageshadow="2"
     inkscape:window-width="1112"
     inkscape:window-height="930"
     id="namedview3761"
     showgrid="false"
     inkscape:measure-start="0,0"
     inkscape:measure-end="0,0"
     inkscape:zoom="0.5"
     inkscape:cx="-104"
     inkscape:cy="256"
     inkscape:window-x="2970"
     inkscape:window-y="652"
     inkscape:window-maximized="0"
     inkscape:current-layer="svg3759" /><g
     id="Layer_1"
     transform="matrix(0.70955185,0,0,0.70955185,75.002547,75.521584)"><g
       id="g3756"><path
         d="m 112.155,67.644 h 84.212 v 236.019 c 0,106.375 -50.969,143.497 -132.414,143.497 -19.944,0 -45.429,-3.324 -62.052,-8.864 L 11.32,370.15 c 11.635,3.878 26.594,6.648 43.214,6.648 35.458,0 57.621,-16.068 57.621,-73.687 z"
         id="path3752"
         inkscape:connector-curvature="0" /><path
         d="m 269.484,354.634 c 22.161,11.635 57.62,23.27 93.632,23.27 38.783,0 59.282,-16.066 59.282,-40.998 0,-22.715 -17.729,-36.565 -62.606,-52.079 -62.053,-22.162 -103.05,-56.512 -103.05,-111.36 0,-63.715 53.741,-111.917 141.278,-111.917 42.662,0 73.132,8.313 95.295,18.838 l -18.839,67.592 c -14.404,-7.201 -41.553,-17.729 -77.562,-17.729 -36.567,0 -54.297,17.175 -54.297,36.013 0,23.824 20.499,34.349 69.256,53.188 65.928,24.378 96.4,58.728 96.4,111.915 0,62.606 -47.647,115.794 -150.143,115.794 -42.662,0 -84.77,-11.636 -105.82,-23.27 z"
         id="path3754"
         inkscape:connector-curvature="0" /></g></g><rect
     style="opacity:0.76999996;fill:none;stroke:#000000;stroke-width:15;stroke-linejoin:round;stroke-miterlimit:4;stroke-dasharray:none;stroke-opacity:1"
     id="rect3767"
     width="474.05112"
     height="472"
     x="18.974442"
     y="20" /></svg>