<?xml version="1.0" encoding="UTF-8"?>
<svg xmlns="http://www.w3.org/2000/svg" xmlns:xlink="http://www.w3.org/1999/xlink" width="100pt" height="100pt" viewBox="0 0 100 100" version="1.1">
<g id="surface1">
<path style=" stroke:none;fill-rule:nonzero;fill:rgb(67.058824%,7.058824%,7.058824%);fill-opacity:1;" d="M 7.46875 2.289062 C 4.882812 2.972656 2.792969 5.289062 2.199219 8.105469 C 1.519531 11.285156 1.519531 89.367188 2.199219 92.546875 C 2.746094 95.183594 3.882812 96.820312 5.925781 97.953125 C 7.289062 98.679688 10.421875 98.726562 49.625 98.726562 C 72.882812 98.726562 92.414062 98.589844 93.09375 98.363281 C 95.003906 97.863281 97.453125 95.457031 98 93.59375 C 98.589844 91.367188 98.636719 9.378906 98 7.242188 C 97.5 5.425781 96.09375 3.789062 94.140625 2.746094 C 92.914062 2.0625 88.914062 1.972656 50.984375 1.882812 C 23.550781 1.835938 8.605469 1.972656 7.46875 2.289062 Z M 51.894531 19.417969 C 54.164062 19.914062 56.890625 20.640625 58.027344 21.007812 C 60.34375 21.867188 65.566406 24.730469 65.976562 25.367188 C 66.15625 25.640625 66.75 25.457031 67.429688 24.914062 C 71.335938 21.824219 78.105469 27.820312 75.332031 31.90625 C 74.425781 33.226562 74.425781 33.269531 75.332031 34.496094 C 77.558594 37.675781 79.921875 43.582031 81.011719 48.804688 C 82.328125 55.253906 82.964844 64.203125 82.148438 65.703125 C 80.875 68.066406 79.195312 66.113281 74.335938 56.710938 C 71.152344 50.484375 66.382812 43.308594 65.476562 43.308594 C 65.203125 43.308594 63.25 45.171875 61.160156 47.441406 C 33.363281 77.695312 27.820312 83.507812 27.003906 83.507812 C 23.957031 83.507812 15.875 74.878906 17.007812 72.878906 C 17.191406 72.515625 19.324219 70.472656 21.6875 68.246094 C 24.050781 66.066406 33.042969 57.617188 41.582031 49.484375 L 57.210938 34.722656 L 55.890625 33.632812 C 53.347656 31.5 48.625 28.589844 43.265625 25.910156 C 40.265625 24.414062 36.949219 22.550781 35.90625 21.777344 C 33.996094 20.371094 33.363281 18.871094 34.542969 18.371094 C 35.722656 17.828125 47.898438 18.554688 51.894531 19.417969 Z M 51.894531 19.417969 "/>
</g>
</svg>
