<?xml version="1.0" ?><!DOCTYPE svg  PUBLIC '-//W3C//DTD SVG 1.1//EN'  'http://www.w3.org/Graphics/SVG/1.1/DTD/svg11.dtd'><svg enable-background="new 0 0 512 512" height="512px" id="Layer_1" version="1.1" viewBox="0 0 512 512" width="512px" xml:space="preserve" xmlns="http://www.w3.org/2000/svg" xmlns:xlink="http://www.w3.org/1999/xlink"><g><path d="M144,320v-32h176v-16c0-8.844,7.156-16,16-16h48c8.844,0,16,7.156,16,16v16h48V56c0-4.422-3.563-8-8-8H104   c-4.406,0-8,3.578-8,8v40H64V48c0-17.672,14.344-32,32-32h352c17.688,0,32,14.328,32,32v240h6c5.531,0,10,4.484,10,10v12   c0,5.516-4.469,10-10,10H144z M416,83.75c0-2.078-1.688-3.75-3.75-3.75h-248.5c-2.063,0-3.75,1.672-3.75,3.75v8.5   c0,2.078,1.688,3.75,3.75,3.75h248.5c2.063,0,3.75-1.672,3.75-3.75V83.75z M416,115.75c0-2.078-1.688-3.75-3.75-3.75h-184.5   c-2.063,0-3.75,1.672-3.75,3.75v8.5c0,2.078,1.688,3.75,3.75,3.75h184.5c2.063,0,3.75-1.672,3.75-3.75V115.75z M412.25,144h-184.5   c-2.063,0-3.75,1.672-3.75,3.75v8.5c0,2.078,1.688,3.75,3.75,3.75h184.5c2.063,0,3.75-1.672,3.75-3.75v-8.5   C416,145.672,414.313,144,412.25,144z M248,416c22.094,0,40-17.906,40-40c0-22.078-17.906-40-40-40s-40,17.922-40,40   C208,398.094,225.906,416,248,416z M424,416c22.094,0,40-17.906,40-40c0-22.078-17.906-40-40-40s-40,17.922-40,40   C384,398.094,401.906,416,424,416z M284.25,432h-72.5C192,432,176,448,176,467.75V480h144v-12.25C320,448,304,432,284.25,432z    M460.25,432h-72.5C368,432,352,448,352,467.75V480h144v-12.25C496,448,480,432,460.25,432z M88,192c22.094,0,40-17.906,40-40   c0-22.078-17.906-40-40-40s-40,17.922-40,40C48,174.094,65.906,192,88,192z M183.875,211.766l8-63.969   c1.188-9.656-5.656-18.438-15.281-19.656c-9.75-1.25-18.469,5.641-19.656,15.281l-6.719,53.75L123.594,208H51.75h-5.188   c-8.656,0-16.906,3.844-22.688,10.531c-5.75,6.703-7.875,12.328-7.875,23.75c0,11.438,0,81.938,0,81.938   C16,340.563,29.375,352,44.813,352H48l8,89.141C56,453.75,65.906,464,78.125,464h19.75C110.094,464,120,453.75,120,441.141   l10.344-197.891l42.688-17.359C178.938,223.5,183.094,218.094,183.875,211.766z" fill="#4D4D4D"/></g></svg>