<?xml version="1.0" encoding="UTF-8" standalone="no"?>
<svg
   xmlns:dc="http://purl.org/dc/elements/1.1/"
   xmlns:cc="http://creativecommons.org/ns#"
   xmlns:rdf="http://www.w3.org/1999/02/22-rdf-syntax-ns#"
   xmlns:svg="http://www.w3.org/2000/svg"
   xmlns="http://www.w3.org/2000/svg"
   xmlns:sodipodi="http://sodipodi.sourceforge.net/DTD/sodipodi-0.dtd"
   xmlns:inkscape="http://www.inkscape.org/namespaces/inkscape"
   version="1"
   viewBox="0 0 40 40.000001"
   enable-background="new 0 0 48 48"
   id="svg3396"
   inkscape:version="0.91 r13725"
   sodipodi:docname="camera.svg"
   width="40"
   height="40">
  <metadata
     id="metadata3416">
    <rdf:RDF>
      <cc:Work
         rdf:about="">
        <dc:format>image/svg+xml</dc:format>
        <dc:type
           rdf:resource="http://purl.org/dc/dcmitype/StillImage" />
        <dc:title></dc:title>
      </cc:Work>
    </rdf:RDF>
  </metadata>
  <defs
     id="defs3414" />
  <sodipodi:namedview
     pagecolor="#ffffff"
     bordercolor="#666666"
     borderopacity="1"
     objecttolerance="10"
     gridtolerance="10"
     guidetolerance="10"
     inkscape:pageopacity="0"
     inkscape:pageshadow="2"
     inkscape:window-width="1920"
     inkscape:window-height="970"
     id="namedview3412"
     showgrid="false"
     fit-margin-top="0"
     fit-margin-left="0"
     fit-margin-right="0"
     fit-margin-bottom="0"
     inkscape:zoom="16"
     inkscape:cx="20"
     inkscape:cy="18"
     inkscape:window-x="0"
     inkscape:window-y="33"
     inkscape:window-maximized="1"
     inkscape:current-layer="svg3396" />
  <g
     id="g3396"
     transform="translate(0,-2.0499983)">
    <path
       style="fill:#512da8"
       inkscape:connector-curvature="0"
       id="path3398"
       d="m 29.9,10.099998 -19.7,0 3.4,-5.0999995 c 0.4,-0.6 1,-0.9 1.7,-0.9 l 9.6,0 c 0.7,0 1.3,0.3 1.7,0.9 l 3.3,5.0999995 z" />
    <path
       style="fill:#8667c4"
       inkscape:connector-curvature="0"
       id="path3400"
       d="m 10,8.9999985 -6,0 0,-1.8 c 0,-0.7 0.5,-1.2 1.2,-1.2 l 3.6,0 c 0.7,0 1.2,0.5 1.2,1.2 l 0,1.8 z" />
    <path
       style="fill:#5e35b1"
       inkscape:connector-curvature="0"
       id="path3402"
       d="m 36,39.999998 -32,0 c -2.2,0 -4,-1.8 -4,-4 l 0,-24 C 0,9.7999985 1.8,7.9999985 4,7.9999985 l 32,0 c 2.2,0 4,1.8 4,3.9999995 l 0,24 c 0,2.2 -1.8,4 -4,4 z" />
    <circle
       style="fill:#512da8"
       id="circle3404"
       r="12"
       cy="23.999998"
       cx="20" />
    <circle
       style="fill:#b388ff"
       id="circle3406"
       r="9"
       cy="23.999998"
       cx="20" />
    <path
       style="fill:#c7a7ff"
       inkscape:connector-curvature="0"
       id="path3408"
       d="m 25,20.999998 c -1.2,-1.4 -3,-2.2 -4.8,-2.2 -1.8,0 -3.6,0.8 -4.8,2.2 -0.5,0.5 -0.4,1.3 0.1,1.8 0.5,0.5 1.3,0.4 1.8,-0.1 1.5,-1.7 4.3,-1.7 5.8,0 0.3,0.3 0.6,0.4 1,0.4 0.3,0 0.6,-0.1 0.9,-0.3 0.4,-0.4 0.5,-1.3 0,-1.8 z" />
    <ellipse
       style="fill:#8667c4"
       id="ellipse3410"
       ry="1.5"
       rx="2"
       cy="11.499998"
       cx="7" />
  </g>
</svg>
